<svg width="560" height="320" viewBox="0 0 560 320" fill="none" xmlns="http://www.w3.org/2000/svg">
  <rect width="560" height="320" rx="20" fill="#F5F8FB"/>
  <path d="M0 238C72 216 130 218 195 238C270 261 332 260 402 231C458 208 508 208 560 222V320H0V238Z" fill="#E7EEF5"/>
  <ellipse cx="296" cy="226" rx="198" ry="28" fill="#C8D4DF" opacity=".45"/>
  <path d="M70 168C128 127 188 106 253 106H397C432 106 462 132 466 166C470 205 438 238 399 238H257C191 238 130 216 70 176" stroke="#1A2D45" stroke-width="68" stroke-linecap="round"/>
  <path d="M84 166C139 137 193 122 250 122H396C422 122 443 142 446 168C449 196 426 220 398 220H257C198 220 141 203 84 174" stroke="#2B405A" stroke-width="35" stroke-linecap="round"/>
  <circle cx="401" cy="172" r="58" fill="#14253C"/>
  <circle cx="401" cy="172" r="42" fill="#F0F4F8"/>
  <circle cx="401" cy="172" r="24" fill="#D8E1EA"/>
  <circle cx="401" cy="172" r="11" fill="#D99A14"/>
  <circle cx="374" cy="154" r="9" fill="#C78115"/>
  <circle cx="429" cy="156" r="9" fill="#B87512"/>
  <circle cx="372" cy="190" r="9" fill="#A96D13"/>
  <circle cx="429" cy="190" r="9" fill="#E5B33A"/>
  <path d="M117 141H251" stroke="#73869A" stroke-width="8" stroke-linecap="round" opacity=".55"/>
  <path d="M105 166H289" stroke="#E3EAF0" stroke-width="13" stroke-linecap="round"/>
  <path d="M130 193H265" stroke="#8CA0B2" stroke-width="8" stroke-linecap="round" opacity=".6"/>
  <path d="M469 163C489 154 510 150 532 151" stroke="#8698AA" stroke-width="10" stroke-linecap="round" opacity=".38"/>
  <path d="M462 194C483 200 503 207 521 218" stroke="#8698AA" stroke-width="8" stroke-linecap="round" opacity=".32"/>
</svg>
